PathFileType	4	(X/Y/Z)	C:\Users\dbl\Desktop\LZH\BX\Trimmed_bx_n_10_501.trc
DataRate	CameraRate	NumFrames	NumMarkers	Units	OrigDataRate	OrigDataStartFrame	OrigNumFrames
50.00	50.00	      5	43	mm	50.00	729	      1457
Frame#	Time	Top.Head			R.Acromium			L.Acromium			Sternum			R.ASIS			L.ASIS			V.Sacral			R.Thigh.Upper			R.Thigh.Front			R.Thigh.Rear			R.Knee.Lat			R.Knee.Med			R.Shank.Upper			R.Shank.Front			R.Shank.Rear			R.Ankle.Lat			R.Midfoot.Lat			R.Toe.Lat			R.Toe.Tip			R.Toe.Med			R.Ankle.Med			R.Midfoot.Sup			R.Heel			L.Thigh.Upper			L.Thigh.Front			L.Thigh.Rear			L.Knee.Lat			L.Knee.Med			L.Shank.Upper			L.Shank.Front			L.Shank.Rear			L.Ankle.Lat			L.Midfoot.Lat			L.Toe.Lat			L.Toe.Tip			L.Toe.Med			L.Ankle.Med			L.Midfoot.Sup			L.Heel			origin1 front left			origin2 front right			origin 3 back right			origin 4 back leftt			
		X1	Y1	Z1	X2	Y2	Z2	X3	Y3	Z3	X4	Y4	Z4	X5	Y5	Z5	X6	Y6	Z6	X7	Y7	Z7	X8	Y8	Z8	X9	Y9	Z9	X10	Y10	Z10	X11	Y11	Z11	X12	Y12	Z12	X13	Y13	Z13	X14	Y14	Z14	X15	Y15	Z15	X16	Y16	Z16	X17	Y17	Z17	X18	Y18	Z18	X19	Y19	Z19	X20	Y20	Z20	X21	Y21	Z21	X22	Y22	Z22	X23	Y23	Z23	X24	Y24	Z24	X25	Y25	Z25	X26	Y26	Z26	X27	Y27	Z27	X28	Y28	Z28	X29	Y29	Z29	X30	Y30	Z30	X31	Y31	Z31	X32	Y32	Z32	X33	Y33	Z33	X34	Y34	Z34	X35	Y35	Z35	X36	Y36	Z36	X37	Y37	Z37	X38	Y38	Z38	X39	Y39	Z39	X40	Y40	Z40	X41	Y41	Z41	X42	Y42	Z42	X43	Y43	Z43	

729	14.560	-691.07397	235.47139	1822.79919	-646.84229	75.70952	1537.69971	-623.76331	413.72308	1559.98889	-532.09729	250.82446	1353.79871	-544.37036	133.99022	1033.60742	-525.88110	361.99615	1037.07434	-739.30017	256.82410	1059.97424	-625.40912	88.45776	832.84991	-534.97394	145.59029	808.44855	-650.91486	106.84284	722.51758	-666.12677	125.16646	605.23358	-639.58020	232.46927	564.07257	-695.26080	126.71688	540.33765	-615.39502	172.27782	526.65369	-703.30261	120.02714	488.87271	-684.50397	151.76463	212.73460	-609.09784	89.57475	165.17184	-562.16644	68.04005	162.28101	-482.22302	109.61821	157.20140	-527.79449	162.54642	164.62601	-634.11768	227.29457	222.03627	-591.40717	201.16234	172.59096	-717.98828	218.30479	169.28905	-619.06555	439.78168	855.35095	-535.57294	392.07184	814.72418	-642.40070	426.90555	742.80682	-658.92920	405.65054	607.39636	-644.87640	293.68582	571.71436	-674.82239	406.67087	561.36395	-614.91559	352.45120	538.02161	-728.23615	407.82813	497.04523	-678.67847	399.72522	214.21121	-582.50958	451.65381	163.83649	-543.65387	461.83694	156.73286	-479.63452	410.06839	165.59177	-524.17139	371.23590	177.55344	-643.51727	310.43225	210.53922	-592.87006	330.62692	171.35712	-731.90540	328.57321	160.95120	-443.66364	448.52151	147.20781	-450.47214	75.04106	143.77068	-806.37103	82.64062	142.08006	-799.61389	456.56830	145.27267	
730	14.580	-685.70740	234.98596	1823.80676	-644.79480	75.16353	1537.63855	-621.44690	413.35327	1559.75989	-531.18494	250.34007	1353.19678	-545.07947	134.00891	1033.11206	-526.22791	361.92368	1036.97510	-739.69116	256.78018	1060.30347	-626.11646	88.43750	832.76184	-535.64258	145.46208	808.33722	-651.61566	106.84969	722.49548	-666.71460	125.14929	605.24280	-640.02997	232.46643	564.11993	-695.79309	126.73396	540.31274	-615.85638	172.25743	526.69293	-703.71729	120.02654	488.83655	-684.52454	151.73293	212.74301	-609.09772	89.53735	165.17792	-562.17236	68.04598	162.27522	-482.19876	109.59579	157.17201	-527.79340	162.55600	164.61975	-634.14520	227.28719	222.03610	-591.41089	201.16306	172.58783	-717.97174	218.32741	169.28467	-619.47144	439.67322	855.39600	-535.97992	391.94055	814.77545	-642.76593	426.83823	742.81329	-659.16833	405.60147	607.36981	-645.24280	293.58484	571.58734	-675.11615	406.67908	561.42303	-615.20129	352.35278	538.09180	-728.46185	407.79684	496.99890	-678.68909	399.71066	214.21965	-582.51239	451.65665	163.82111	-543.67700	461.83142	156.73056	-479.64041	410.08716	165.60336	-524.17554	371.24496	177.54688	-643.49182	310.40363	210.60739	-592.89557	330.62494	171.34195	-731.93848	328.64008	161.03546	-443.65976	448.46680	147.16643	-450.47897	75.04192	143.77667	-806.26379	82.54419	142.09245	-799.63947	456.55881	145.27925	
731	14.600	-680.15881	234.54184	1824.76636	-642.71564	74.63914	1537.55530	-619.07239	413.00854	1559.49158	-530.24530	249.86232	1352.57336	-545.80640	133.99191	1032.67395	-526.55090	361.79901	1036.86646	-740.08051	256.80130	1060.61743	-626.86969	88.42324	832.68549	-536.34229	145.31175	808.23944	-652.33453	106.85746	722.45917	-667.32971	125.14082	605.26837	-640.41650	232.57971	564.22461	-696.34515	126.79417	540.28345	-616.29901	172.24628	526.76770	-704.14880	120.05190	488.78073	-684.54688	151.69810	212.75215	-609.10046	89.47703	165.18814	-562.17847	68.04944	162.27034	-482.17703	109.56181	157.14525	-527.79663	162.55699	164.62367	-634.17908	227.27274	222.02045	-591.42853	201.14766	172.57503	-717.94849	218.35426	169.28111	-619.83197	439.57303	855.42987	-536.37396	391.78659	814.81366	-643.10547	426.80521	742.83350	-659.39856	405.55182	607.32556	-645.56061	293.51285	571.45978	-675.39539	406.70224	561.44122	-615.47003	352.25079	538.15692	-728.66071	407.78232	496.98035	-678.68555	399.70828	214.23820	-582.51550	451.65967	163.80217	-543.69611	461.82764	156.72334	-479.64996	410.09631	165.60753	-524.17865	371.25958	177.54391	-643.48077	310.36615	210.68738	-592.92480	330.62848	171.31598	-731.96533	328.70035	161.12314	-443.65921	448.44128	147.13141	-450.48468	75.04311	143.78592	-806.15186	82.43649	142.11615	-799.66156	456.55911	145.29095	
732	14.620	-674.42133	234.16556	1825.68054	-640.61011	74.13732	1537.44788	-616.65100	412.68921	1559.18970	-529.27496	249.39845	1351.93652	-546.51483	133.92615	1032.31653	-526.86249	361.62210	1036.75269	-740.46655	256.87173	1060.91052	-627.66077	88.40712	832.63428	-537.05487	145.14937	808.15942	-653.05640	106.85900	722.40155	-667.95465	125.14515	605.29694	-640.75952	232.77026	564.35608	-696.89667	126.88608	540.24597	-616.72412	172.24568	526.86401	-704.58472	120.09831	488.70941	-684.56647	151.66354	212.76401	-609.10486	89.39900	165.20364	-562.18524	68.04983	162.26637	-482.16321	109.52374	157.12276	-527.80438	162.54871	164.63373	-634.22095	227.25040	221.98633	-591.45770	201.11926	172.55548	-717.92572	218.38501	169.28072	-620.16180	439.49274	855.44928	-536.76331	391.62524	814.82843	-643.42554	426.81952	742.86450	-659.64801	405.51437	607.27704	-645.83594	293.47107	571.35767	-675.65936	406.72522	561.40894	-615.72253	352.14743	538.20984	-728.84009	407.79538	496.97702	-678.67035	399.71884	214.25836	-582.51752	451.66159	163.78606	-543.70898	461.82556	156.71411	-479.66568	410.10126	165.60789	-524.18195	371.27121	177.53928	-643.48584	310.32626	210.77669	-592.94977	330.64056	171.28619	-731.98529	328.75217	161.20062	-443.66055	448.44049	147.10170	-450.48782	75.04429	143.79567	-806.05432	82.33603	142.14975	-799.67566	456.57062	145.30132	
733	14.640	-668.47931	233.87698	1826.56250	-638.48230	73.65959	1537.31592	-614.19702	412.39630	1558.86377	-528.27161	248.95953	1351.29358	-547.17584	133.81264	1032.03259	-527.17163	361.40265	1036.63354	-740.84558	256.96545	1061.18054	-628.46991	88.38500	832.61365	-537.75989	144.98785	808.09857	-653.76501	106.85075	722.32446	-668.57007	125.16558	605.31281	-641.09290	232.98135	564.47577	-697.42639	126.98956	540.19733	-617.13416	172.25375	526.96637	-705.01001	120.15711	488.63123	-684.57910	151.63202	212.78059	-609.11084	89.31480	165.22264	-562.19232	68.04639	162.26437	-482.16000	109.48902	157.10497	-527.81494	162.53287	164.64394	-634.27094	227.22054	221.93593	-591.49078	201.08437	172.53592	-717.90906	218.41812	169.28481	-620.47980	439.43671	855.45239	-537.15204	391.47202	814.81738	-643.73657	426.88278	742.90094	-659.93439	405.49918	607.24036	-646.09534	293.45682	571.30280	-675.91229	406.73364	561.32904	-615.96057	352.04700	538.24994	-729.01282	407.84216	496.97668	-678.64722	399.74033	214.27412	-582.51843	451.66150	163.77696	-543.71631	461.82462	156.70518	-479.68686	410.10727	165.60965	-524.18396	371.27310	177.52696	-643.50409	310.29019	210.86722	-592.96149	330.65845	171.26062	-731.99963	328.79776	161.25954	-443.66217	448.45584	147.07559	-450.48804	75.04498	143.80339	-805.98553	82.26041	142.18745	-799.67999	456.59146	145.30492	
